<mxfile host="65bd71144e" modified="2020-11-26T19:11:34.198Z" agent="5.0 (Windows NT 10.0; Win64; x64) AppleWebKit/537.36 (KHTML, like Gecko) Code/1.51.1 Chrome/83.0.4103.122 Electron/9.3.3 Safari/537.36" version="13.6.5" etag="YzG-rUYZf7E4VS8RDiJF">
    <diagram id="I2Q2qUYtLvtOMGCOXNLm" name="Page-1">
        <mxGraphModel dx="1070" dy="525" grid="1" gridSize="10" guides="1" tooltips="1" connect="1" arrows="1" fold="1" page="1" pageScale="1" pageWidth="827" pageHeight="1169" math="0" shadow="0">
            <root>
                <mxCell id="0"/>
                <mxCell id="1" parent="0"/>
                <mxCell id="2" value="" style="shape=doubleArrow;direction=south;whiteSpace=wrap;html=1;" vertex="1" parent="1">
                    <mxGeometry x="100" y="220" width="60" height="100" as="geometry"/>
                </mxCell>
                <mxCell id="3" value="" style="shape=switch;whiteSpace=wrap;html=1;" vertex="1" parent="1">
                    <mxGeometry x="100" y="140" width="60" height="60" as="geometry"/>
                </mxCell>
                <mxCell id="4" value="Process Bar" style="swimlane;childLayout=stackLayout;horizontal=1;fillColor=none;horizontalStack=1;resizeParent=1;resizeParentMax=0;resizeLast=0;collapsible=0;strokeColor=none;stackBorder=10;stackSpacing=-12;resizable=1;align=center;points=[];fontColor=#000000;" vertex="1" parent="1">
                    <mxGeometry x="-20" y="330" width="296" height="100" as="geometry"/>
                </mxCell>
                <mxCell id="5" value="Step 1" style="shape=step;perimeter=stepPerimeter;fixedSize=1;points=[];" vertex="1" parent="4">
                    <mxGeometry x="10" y="33" width="100" height="57" as="geometry"/>
                </mxCell>
                <mxCell id="6" value="Step 2" style="shape=step;perimeter=stepPerimeter;fixedSize=1;points=[];" vertex="1" parent="4">
                    <mxGeometry x="98" y="33" width="100" height="57" as="geometry"/>
                </mxCell>
                <mxCell id="7" value="Step 3" style="shape=step;perimeter=stepPerimeter;fixedSize=1;points=[];" vertex="1" parent="4">
                    <mxGeometry x="186" y="33" width="100" height="57" as="geometry"/>
                </mxCell>
            </root>
        </mxGraphModel>
    </diagram>
</mxfile>